<svg width="263" height="78" viewBox="0 0 263 78" fill="none" xmlns="http://www.w3.org/2000/svg">
<g filter="url(#filter0_f_36_37)">
<mask id="mask0_36_37" style="mask-type:alpha" maskUnits="userSpaceOnUse" x="0" y="0" width="263" height="78">
<rect x="0.25" y="0.25" width="262" height="77" fill="#C2C3C6"/>
</mask>
<g mask="url(#mask0_36_37)">
<path opacity="0.2" d="M-2.75 79.25L4.25 79.25L39.25 24.25H-2.75V79.25Z" fill="url(#paint0_linear_36_37)"/>
<path d="M101.25 -3.60714L69.746 -5.75L49.25 24.25H101.25L101.25 -3.60714Z" fill="url(#paint1_linear_36_37)" fill-opacity="0.25"/>
<path opacity="0.6" d="M266.25 80.1786L234.746 82.25L214.25 53.25H266.25L266.25 80.1786Z" fill="url(#paint2_linear_36_37)"/>
<path opacity="0.15" d="M173.25 53.25H214.25L198.09 30.25L173.25 53.25Z" fill="url(#paint3_linear_36_37)"/>
<path opacity="0.2" d="M265.25 -9.25001L223.25 52.8452L265.25 52.8452L265.25 -9.25001Z" fill="url(#paint4_linear_36_37)"/>
<path opacity="0.6" d="M161.25 80.1786L193.36 82.25L214.25 53.25H161.25L161.25 80.1786Z" fill="url(#paint5_linear_36_37)"/>
<path d="M-2.73071 -3.625L28.75 -5.75L49.2308 24H-2.73071L-2.73071 -3.625Z" fill="#6F7274" fill-opacity="0.1"/>
<path opacity="0.2" d="M90.25 24.25H49.25L65.4103 47.25L90.25 24.25Z" fill="url(#paint6_linear_36_37)"/>
</g>
</g>
<defs>
<filter id="filter0_f_36_37" x="0" y="0" width="262.5" height="77.5" filterUnits="userSpaceOnUse" color-interpolation-filters="sRGB">
<feFlood flood-opacity="0" result="BackgroundImageFix"/>
<feBlend mode="normal" in="SourceGraphic" in2="BackgroundImageFix" result="shape"/>
<feGaussianBlur stdDeviation="0.125" result="effect1_foregroundBlur_36_37"/>
</filter>
<linearGradient id="paint0_linear_36_37" x1="18.25" y1="24.25" x2="18.25" y2="83.25" gradientUnits="userSpaceOnUse">
<stop stop-opacity="0"/>
<stop offset="0.427885" stop-color="#6B6A67" stop-opacity="0.3"/>
<stop offset="0.826923" stop-color="#6B6A67" stop-opacity="0"/>
</linearGradient>
<linearGradient id="paint1_linear_36_37" x1="85.25" y1="9.25" x2="34.25" y2="9.25" gradientUnits="userSpaceOnUse">
<stop stop-color="#737373" stop-opacity="0"/>
<stop offset="1" stop-color="#D7D5CF"/>
</linearGradient>
<linearGradient id="paint2_linear_36_37" x1="256.75" y1="67.75" x2="214.25" y2="67.75" gradientUnits="userSpaceOnUse">
<stop stop-color="#D0CCC6"/>
<stop offset="1" stop-color="#CEC9C6"/>
</linearGradient>
<linearGradient id="paint3_linear_36_37" x1="200.25" y1="33.75" x2="214.25" y2="53.25" gradientUnits="userSpaceOnUse">
<stop stop-color="#D9D9D9" stop-opacity="0"/>
<stop offset="1" stop-color="white"/>
</linearGradient>
<linearGradient id="paint4_linear_36_37" x1="239.75" y1="8.25" x2="240.75" y2="54.75" gradientUnits="userSpaceOnUse">
<stop stop-color="#6B6A67" stop-opacity="0"/>
<stop offset="0.449515" stop-color="#6B6A67" stop-opacity="0.35"/>
<stop offset="1" stop-color="#6B6A67" stop-opacity="0"/>
</linearGradient>
<linearGradient id="paint5_linear_36_37" x1="214.25" y1="68.25" x2="153.75" y2="68.25" gradientUnits="userSpaceOnUse">
<stop stop-color="#D1CFCB"/>
<stop offset="0.258173" stop-color="#D1CFCB"/>
<stop offset="0.659455" stop-color="#E4E4E3" stop-opacity="0.268591"/>
<stop offset="1" stop-color="#EBEBEB" stop-opacity="0"/>
</linearGradient>
<linearGradient id="paint6_linear_36_37" x1="49.25" y1="24.25" x2="65.25" y2="47.25" gradientUnits="userSpaceOnUse">
<stop stop-color="white"/>
<stop offset="0.9" stop-color="#999999" stop-opacity="0"/>
</linearGradient>
</defs>
</svg>
